REM DIRINDEX 1\2,1\3,1\4,1\5
REM DIRNAME "folder01","folder02","folder03","folder04","folder05"
TITLE ""
FILE "P1Q_j_1628-1641.mp3" MP3
  TRACK 01 AUDIO
    TITLE "0:"
    INDEX 01 00:00:00
  TRACK 02 AUDIO
    TITLE "3:cjc173_0084"
    INDEX 01 00:00:10
  TRACK 03 AUDIO
    TITLE "0:"
    INDEX 01 00:01:35
  TRACK 04 AUDIO
    TITLE "4:cjc173_0085"
    INDEX 01 00:01:55
  TRACK 05 AUDIO
    TITLE "0:"
    INDEX 01 00:05:68
  TRACK 06 AUDIO
    TITLE "5:cjc173_0086"
    INDEX 01 00:06:15
  TRACK 07 AUDIO
    TITLE "0:"
    INDEX 01 00:10:54
  TRACK 08 AUDIO
    TITLE "3:cjc173_0087"
    INDEX 01 00:11:24
  TRACK 09 AUDIO
    TITLE "0:"
    INDEX 01 00:12:41
  TRACK 10 AUDIO
    TITLE "4:cjc173_0088"
    INDEX 01 00:12:62
  TRACK 11 AUDIO
    TITLE "0:"
    INDEX 01 00:16:60
  TRACK 12 AUDIO
    TITLE "5:cjc173_0089"
    INDEX 01 00:17:05
  TRACK 13 AUDIO
    TITLE "0:"
    INDEX 01 00:21:36
  TRACK 14 AUDIO
    TITLE "3:cjc173_0090"
    INDEX 01 00:22:06
  TRACK 15 AUDIO
    TITLE "0:"
    INDEX 01 00:23:33
  TRACK 16 AUDIO
    TITLE "4:cjc173_0091"
    INDEX 01 00:23:54
  TRACK 17 AUDIO
    TITLE "0:"
    INDEX 01 00:27:31
  TRACK 18 AUDIO
    TITLE "5:cjc173_0092"
    INDEX 01 00:27:50
  TRACK 19 AUDIO
    TITLE "0:"
    INDEX 01 00:32:02
  TRACK 20 AUDIO
    TITLE "3:cjc173_0093"
    INDEX 01 00:32:49
  TRACK 21 AUDIO
    TITLE "0:"
    INDEX 01 00:34:09
  TRACK 22 AUDIO
    TITLE "4:cjc173_0094"
    INDEX 01 00:34:29
  TRACK 23 AUDIO
    TITLE "0:"
    INDEX 01 00:37:25
  TRACK 24 AUDIO
    TITLE "5:cjc173_0095"
    INDEX 01 00:37:45
  TRACK 25 AUDIO
    TITLE "0:"
    INDEX 01 00:42:03
  TRACK 26 AUDIO
    TITLE "3:cjc173_0096"
    INDEX 01 00:42:48
  TRACK 27 AUDIO
    TITLE "0:"
    INDEX 01 00:44:04
  TRACK 28 AUDIO
    TITLE "4:cjc173_0097"
    INDEX 01 00:44:23
  TRACK 29 AUDIO
    TITLE "0:"
    INDEX 01 00:48:13
  TRACK 30 AUDIO
    TITLE "5:cjc173_0098"
    INDEX 01 00:48:31
  TRACK 31 AUDIO
    TITLE "0:"
    INDEX 01 00:52:19
  TRACK 32 AUDIO
    TITLE "3:cjc173_0099"
    INDEX 01 00:52:62
  TRACK 33 AUDIO
    TITLE "0:"
    INDEX 01 00:54:14
  TRACK 34 AUDIO
    TITLE "4:cjc173_0100"
    INDEX 01 00:54:33
  TRACK 35 AUDIO
    TITLE "0:"
    INDEX 01 00:57:14
  TRACK 36 AUDIO
    TITLE "5:cjc173_0101"
    INDEX 01 00:57:34
  TRACK 37 AUDIO
    TITLE "0:"
    INDEX 01 01:00:69
  TRACK 38 AUDIO
    TITLE "3:cjc173_0102"
    INDEX 01 01:01:39
  TRACK 39 AUDIO
    TITLE "0:"
    INDEX 01 01:02:66
  TRACK 40 AUDIO
    TITLE "4:cjc173_0103"
    INDEX 01 01:03:11
  TRACK 41 AUDIO
    TITLE "0:"
    INDEX 01 01:08:10
  TRACK 42 AUDIO
    TITLE "5:cjc173_0104"
    INDEX 01 01:08:30
  TRACK 43 AUDIO
    TITLE "0:"
    INDEX 01 01:13:60
  TRACK 44 AUDIO
    TITLE "3:cjc173_0105"
    INDEX 01 01:14:30
  TRACK 45 AUDIO
    TITLE "0:"
    INDEX 01 01:16:00
  TRACK 46 AUDIO
    TITLE "4:cjc173_0106"
    INDEX 01 01:16:19
  TRACK 47 AUDIO
    TITLE "0:"
    INDEX 01 01:18:30
  TRACK 48 AUDIO
    TITLE "5:cjc173_0107"
    INDEX 01 01:18:50
  TRACK 49 AUDIO
    TITLE "0:"
    INDEX 01 01:22:18
  TRACK 50 AUDIO
    TITLE "3:cjc173_0108"
    INDEX 01 01:22:63
  TRACK 51 AUDIO
    TITLE "0:"
    INDEX 01 01:24:21
  TRACK 52 AUDIO
    TITLE "4:cjc173_0109"
    INDEX 01 01:24:42
  TRACK 53 AUDIO
    TITLE "0:"
    INDEX 01 01:28:68
  TRACK 54 AUDIO
    TITLE "5:cjc173_0110"
    INDEX 01 01:29:12
  TRACK 55 AUDIO
    TITLE "0:"
    INDEX 01 01:33:20
  TRACK 56 AUDIO
    TITLE "3:cjc173_0111"
    INDEX 01 01:33:65
  TRACK 57 AUDIO
    TITLE "0:"
    INDEX 01 01:35:42
  TRACK 58 AUDIO
    TITLE "4:cjc173_0112"
    INDEX 01 01:35:62
  TRACK 59 AUDIO
    TITLE "0:"
    INDEX 01 01:39:32
  TRACK 60 AUDIO
    TITLE "5:cjc173_0113"
    INDEX 01 01:39:52
  TRACK 61 AUDIO
    TITLE "0:"
    INDEX 01 01:44:25
  TRACK 62 AUDIO
    TITLE "3:cjc173_0114"
    INDEX 01 01:44:71
  TRACK 63 AUDIO
    TITLE "0:"
    INDEX 01 01:46:24
  TRACK 64 AUDIO
    TITLE "4:cjc173_0115"
    INDEX 01 01:46:44
  TRACK 65 AUDIO
    TITLE "0:"
    INDEX 01 01:50:61
  TRACK 66 AUDIO
    TITLE "5:cjc173_0116"
    INDEX 01 01:51:06
  TRACK 67 AUDIO
    TITLE "0:"
    INDEX 01 01:54:32
  TRACK 68 AUDIO
    TITLE "3:cjc173_0117"
    INDEX 01 01:55:02
  TRACK 69 AUDIO
    TITLE "0:"
    INDEX 01 01:56:29
  TRACK 70 AUDIO
    TITLE "4:cjc173_0118"
    INDEX 01 01:56:50
  TRACK 71 AUDIO
    TITLE "0:"
    INDEX 01 01:58:59
  TRACK 72 AUDIO
    TITLE "5:cjc173_0119"
    INDEX 01 01:59:04
  TRACK 73 AUDIO
    TITLE "0:"
    INDEX 01 02:02:10
  TRACK 74 AUDIO
    TITLE "3:cjc173_0120"
    INDEX 01 02:02:57
  TRACK 75 AUDIO
    TITLE "0:"
    INDEX 01 02:04:12
  TRACK 76 AUDIO
    TITLE "4:cjc173_0121"
    INDEX 01 02:04:32
  TRACK 77 AUDIO
    TITLE "0:"
    INDEX 01 02:07:52
  TRACK 78 AUDIO
    TITLE "5:cjc173_0122"
    INDEX 01 02:07:72
  TRACK 79 AUDIO
    TITLE "0:"
    INDEX 01 02:11:28
  TRACK 80 AUDIO
    TITLE "3:cjc173_0123"
    INDEX 01 02:12:00
  TRACK 81 AUDIO
    TITLE "0:"
    INDEX 01 02:13:41
  TRACK 82 AUDIO
    TITLE "4:cjc173_0124"
    INDEX 01 02:13:60
  TRACK 83 AUDIO
    TITLE "0:"
    INDEX 01 02:17:27
  TRACK 84 AUDIO
    TITLE "5:cjc173_0125"
    INDEX 01 02:17:45
  TRACK 85 AUDIO
    TITLE "0:"
    INDEX 01 02:22:42
